<svg xmlns="http://www.w3.org/2000/svg" viewBox="0 0 1200 675" width="1200" height="675" preserveAspectRatio="xMidYMid slice">
  <!-- steve.bru : motif topographique pour le hero des voyages sans photo.
       Courbes de niveau organiques generees, non secantes. Lignes petrole sur
       fond transparent ; la couleur de fond est geree en CSS, classe voyage-hero motif.
       Generatif et reproductible (seed fixe), regenerable si besoin. -->
  <g>
    <path d="M 277 230 L 277 233 L 277 236 L 276 239 L 275 242 L 273 245 L 271 247 L 269 249 L 267 251 L 264 253 L 262 254 L 259 255 L 256 256 L 253 256 L 250 256 L 247 255 L 245 254 L 242 253 L 239 252 L 237 251 L 234 250 L 232 248 L 230 246 L 228 244 L 226 241 L 226 239 L 225 236 L 225 233 L 226 230 L 226 227 L 226 224 L 226 222 L 226 218 L 227 215 L 228 212 L 229 209 L 232 207 L 235 205 L 238 205 L 241 204 L 244 205 L 247 205 L 250 206 L 253 206 L 255 206 L 258 207 L 261 208 L 263 209 L 266 211 L 268 212 L 269 215 L 271 217 L 272 219 L 274 222 L 275 224 L 276 227 L 277 230 Z" fill="none" stroke="#4a9a8e" stroke-width="1" stroke-opacity="0.525"/>
    <path d="M 303 230 L 304 236 L 303 242 L 302 248 L 300 254 L 297 259 L 293 264 L 288 268 L 284 272 L 279 276 L 273 278 L 268 280 L 262 282 L 256 282 L 250 281 L 244 280 L 239 278 L 234 276 L 229 274 L 224 272 L 219 269 L 214 266 L 209 262 L 206 258 L 203 253 L 201 247 L 201 241 L 201 236 L 201 230 L 201 225 L 202 219 L 202 213 L 202 207 L 203 200 L 205 194 L 208 188 L 213 184 L 219 181 L 225 179 L 232 179 L 238 179 L 244 180 L 250 181 L 255 182 L 261 183 L 266 184 L 271 186 L 276 188 L 281 191 L 285 195 L 289 199 L 292 204 L 295 208 L 297 213 L 300 219 L 302 224 L 303 230 Z" fill="none" stroke="#4a9a8e" stroke-width="1" stroke-opacity="0.5"/>
    <path d="M 330 230 L 331 239 L 330 248 L 328 257 L 325 266 L 320 274 L 314 281 L 308 288 L 301 293 L 293 298 L 285 303 L 276 306 L 268 307 L 259 308 L 250 307 L 242 305 L 234 302 L 226 299 L 218 296 L 211 293 L 203 289 L 196 284 L 189 279 L 183 272 L 179 264 L 177 256 L 176 247 L 176 238 L 177 230 L 177 222 L 177 213 L 178 205 L 178 195 L 180 186 L 183 176 L 188 168 L 195 161 L 204 156 L 213 154 L 223 153 L 233 154 L 242 155 L 250 157 L 258 158 L 266 159 L 274 161 L 282 163 L 290 167 L 297 172 L 303 177 L 308 184 L 313 191 L 317 198 L 321 205 L 324 213 L 327 221 L 330 230 Z" fill="none" stroke="#4a9a8e" stroke-width="1" stroke-opacity="0.475"/>
    <path d="M 356 230 L 357 242 L 357 254 L 354 266 L 350 278 L 343 289 L 335 298 L 327 307 L 317 314 L 307 321 L 297 327 L 285 331 L 274 333 L 262 334 L 250 332 L 239 330 L 228 326 L 218 322 L 208 318 L 198 313 L 188 308 L 178 302 L 169 295 L 161 286 L 155 276 L 152 264 L 151 253 L 151 241 L 152 230 L 153 219 L 153 208 L 153 196 L 154 184 L 156 171 L 160 158 L 167 147 L 176 138 L 188 131 L 201 128 L 214 127 L 227 128 L 239 130 L 250 132 L 261 134 L 271 136 L 282 138 L 293 141 L 303 146 L 312 152 L 320 160 L 328 168 L 334 177 L 339 187 L 344 197 L 349 207 L 353 218 L 356 230 Z" fill="none" stroke="#4a9a8e" stroke-width="1" stroke-opacity="0.45"/>
    <path d="M 383 230 L 384 245 L 384 261 L 380 276 L 374 290 L 366 303 L 357 315 L 346 326 L 334 336 L 322 344 L 308 351 L 294 356 L 279 359 L 265 359 L 250 358 L 236 354 L 223 350 L 210 345 L 197 340 L 185 334 L 172 328 L 160 320 L 148 311 L 139 300 L 132 287 L 128 273 L 126 258 L 127 244 L 128 230 L 129 216 L 129 202 L 129 188 L 130 172 L 133 156 L 138 140 L 146 126 L 158 115 L 173 107 L 189 103 L 205 102 L 221 103 L 236 105 L 250 108 L 264 110 L 277 112 L 290 115 L 303 119 L 316 125 L 328 133 L 338 142 L 347 153 L 355 164 L 362 176 L 368 189 L 374 202 L 379 215 L 383 230 Z" fill="none" stroke="#4a9a8e" stroke-width="1" stroke-opacity="0.425"/>
    <path d="M 409 230 L 411 248 L 410 267 L 406 285 L 399 302 L 390 318 L 378 332 L 365 345 L 351 357 L 336 367 L 320 375 L 303 381 L 285 385 L 267 385 L 250 383 L 233 379 L 217 374 L 202 368 L 187 362 L 171 355 L 156 348 L 141 339 L 128 327 L 117 314 L 108 298 L 103 281 L 102 264 L 102 247 L 103 230 L 104 214 L 105 197 L 105 179 L 106 161 L 109 141 L 115 123 L 125 105 L 140 92 L 157 82 L 176 77 L 196 76 L 215 77 L 233 80 L 250 83 L 266 86 L 282 89 L 298 92 L 314 97 L 329 104 L 343 113 L 356 124 L 366 137 L 376 151 L 384 165 L 392 180 L 399 196 L 405 213 L 409 230 Z" fill="none" stroke="#4a9a8e" stroke-width="1" stroke-opacity="0.4"/>
    <path d="M 436 230 L 438 251 L 437 273 L 432 294 L 424 314 L 413 332 L 400 349 L 384 364 L 368 378 L 350 389 L 331 399 L 312 406 L 291 410 L 270 411 L 250 409 L 230 404 L 212 398 L 194 391 L 176 384 L 158 376 L 141 367 L 123 357 L 108 344 L 94 328 L 85 310 L 79 290 L 77 270 L 77 249 L 79 230 L 80 211 L 81 191 L 81 171 L 82 149 L 86 127 L 93 105 L 105 85 L 121 69 L 142 58 L 164 52 L 187 50 L 209 52 L 230 55 L 250 59 L 269 62 L 288 65 L 306 69 L 325 75 L 343 83 L 359 94 L 373 107 L 386 122 L 397 138 L 406 155 L 415 172 L 423 190 L 430 210 L 436 230 Z" fill="none" stroke="#4a9a8e" stroke-width="1" stroke-opacity="0.375"/>
    <path d="M 462 230 L 465 254 L 464 279 L 459 303 L 449 326 L 436 347 L 421 366 L 404 384 L 385 399 L 365 412 L 343 423 L 320 431 L 297 436 L 273 437 L 250 434 L 228 429 L 206 422 L 186 414 L 165 406 L 145 397 L 125 387 L 105 375 L 87 360 L 72 342 L 61 321 L 54 298 L 52 275 L 53 252 L 54 230 L 56 208 L 57 186 L 57 162 L 58 138 L 62 112 L 70 87 L 84 64 L 103 46 L 126 33 L 152 26 L 178 25 L 204 27 L 227 30 L 250 34 L 272 38 L 293 42 L 314 46 L 335 53 L 356 62 L 374 74 L 391 89 L 405 106 L 418 125 L 429 144 L 439 164 L 448 185 L 456 207 L 462 230 Z" fill="none" stroke="#4a9a8e" stroke-width="1" stroke-opacity="0.35"/>
    <path d="M 489 230 L 492 257 L 491 285 L 485 312 L 474 338 L 460 362 L 442 383 L 423 403 L 402 420 L 379 435 L 355 448 L 329 457 L 303 462 L 276 463 L 250 460 L 225 454 L 201 446 L 178 437 L 155 427 L 132 418 L 109 406 L 87 393 L 67 376 L 50 356 L 37 332 L 30 307 L 27 281 L 28 255 L 30 230 L 32 205 L 32 180 L 33 154 L 34 126 L 39 97 L 48 69 L 63 43 L 85 23 L 111 8 L 140 1 L 169 -1 L 198 1 L 225 5 L 250 10 L 274 14 L 298 18 L 322 23 L 346 30 L 369 41 L 390 55 L 409 71 L 425 91 L 439 112 L 451 133 L 462 156 L 473 179 L 482 204 L 489 230 Z" fill="none" stroke="#4a9a8e" stroke-width="1" stroke-opacity="0.325"/>
    <path d="M 515 230 L 519 260 L 517 291 L 511 321 L 499 350 L 483 376 L 464 400 L 442 422 L 418 441 L 393 458 L 366 472 L 338 482 L 309 488 L 279 489 L 250 486 L 222 479 L 195 470 L 170 460 L 144 449 L 119 438 L 94 426 L 69 411 L 46 392 L 28 370 L 14 344 L 6 316 L 3 286 L 3 258 L 5 230 L 7 203 L 8 175 L 9 146 L 10 115 L 15 82 L 25 51 L 42 22 L 66 -1 L 95 -16 L 127 -25 L 160 -27 L 192 -24 L 222 -20 L 250 -15 L 277 -10 L 304 -5 L 330 0 L 357 8 L 382 20 L 405 35 L 426 54 L 444 75 L 460 98 L 473 122 L 486 147 L 498 173 L 508 201 L 515 230 Z" fill="none" stroke="#4a9a8e" stroke-width="1" stroke-opacity="0.3"/>
    <path d="M 542 230 L 546 263 L 544 297 L 537 330 L 524 362 L 506 391 L 485 417 L 461 441 L 435 462 L 407 481 L 378 496 L 347 507 L 315 513 L 282 515 L 250 511 L 219 504 L 190 494 L 162 483 L 134 471 L 106 459 L 78 446 L 51 429 L 26 409 L 5 384 L -10 355 L -19 324 L -22 292 L -22 261 L -19 230 L -17 200 L -16 169 L -15 137 L -14 103 L -8 68 L 3 33 L 22 2 L 48 -24 L 80 -41 L 115 -50 L 151 -52 L 186 -50 L 219 -45 L 250 -39 L 280 -34 L 309 -29 L 338 -23 L 367 -14 L 395 -1 L 421 16 L 444 36 L 463 60 L 480 85 L 496 112 L 510 139 L 522 168 L 533 198 L 542 230 Z" fill="none" stroke="#4a9a8e" stroke-width="1" stroke-opacity="0.275"/>
    <path d="M 568 230 L 572 266 L 571 303 L 563 339 L 549 374 L 529 406 L 506 434 L 480 460 L 452 483 L 422 503 L 390 520 L 356 532 L 321 539 L 285 541 L 250 537 L 216 529 L 184 518 L 153 506 L 123 493 L 93 480 L 63 465 L 33 447 L 6 425 L -17 398 L -34 367 L -43 333 L -47 298 L -46 263 L -44 230 L -41 197 L -40 164 L -40 129 L -38 91 L -32 53 L -20 15 L 1 -19 L 29 -47 L 64 -66 L 103 -76 L 142 -78 L 180 -75 L 216 -70 L 250 -64 L 282 -58 L 314 -53 L 346 -46 L 378 -36 L 409 -22 L 437 -4 L 461 19 L 483 44 L 501 72 L 518 101 L 533 131 L 547 162 L 559 195 L 568 230 Z" fill="none" stroke="#4a9a8e" stroke-width="1" stroke-opacity="0.25"/>
    <path d="M 595 230 L 599 269 L 598 309 L 589 349 L 574 386 L 553 420 L 528 451 L 499 479 L 469 504 L 436 526 L 401 544 L 365 557 L 326 565 L 288 566 L 250 562 L 214 554 L 179 542 L 145 529 L 113 515 L 80 501 L 47 485 L 15 465 L -15 441 L -39 412 L -57 378 L -68 341 L -72 303 L -71 266 L -68 230 L -66 194 L -64 158 L -64 120 L -62 80 L -55 38 L -42 -3 L -20 -40 L 11 -70 L 49 -90 L 90 -101 L 133 -104 L 175 -101 L 213 -95 L 250 -88 L 285 -82 L 320 -76 L 355 -69 L 389 -58 L 422 -43 L 452 -23 L 479 1 L 502 29 L 522 59 L 540 90 L 557 123 L 572 157 L 585 192 L 595 230 Z" fill="none" stroke="#4a9a8e" stroke-width="1" stroke-opacity="0.225"/>
    <path d="M 621 230 L 626 272 L 624 315 L 615 358 L 599 398 L 576 435 L 549 468 L 519 499 L 486 526 L 450 549 L 413 568 L 373 583 L 332 591 L 291 592 L 250 588 L 211 578 L 173 566 L 137 552 L 102 537 L 67 522 L 31 504 L -3 483 L -35 457 L -61 426 L -81 389 L -92 350 L -96 309 L -96 269 L -93 230 L -90 192 L -88 153 L -88 112 L -86 68 L -79 23 L -65 -21 L -41 -61 L -7 -93 L 33 -115 L 78 -127 L 124 -130 L 169 -126 L 211 -120 L 250 -113 L 288 -106 L 325 -100 L 363 -92 L 400 -81 L 435 -64 L 468 -43 L 497 -17 L 522 13 L 543 46 L 563 79 L 580 114 L 597 151 L 611 189 L 621 230 Z" fill="none" stroke="#4a9a8e" stroke-width="1" stroke-opacity="0.2"/>
    <path d="M 844 180 L 844 183 L 843 185 L 843 188 L 842 190 L 841 193 L 839 195 L 838 198 L 836 200 L 833 201 L 831 202 L 828 203 L 825 204 L 823 204 L 820 204 L 817 204 L 815 203 L 812 202 L 810 201 L 808 200 L 806 198 L 804 196 L 803 194 L 801 192 L 800 190 L 799 187 L 798 185 L 796 183 L 795 180 L 795 177 L 795 174 L 796 171 L 797 169 L 798 166 L 800 164 L 803 163 L 805 161 L 807 159 L 809 158 L 812 157 L 815 156 L 817 156 L 820 156 L 823 156 L 825 157 L 828 158 L 830 160 L 832 161 L 834 162 L 836 164 L 838 165 L 840 167 L 842 170 L 843 172 L 844 175 L 844 177 L 844 180 Z" fill="none" stroke="#4a9a8e" stroke-width="1" stroke-opacity="0.525"/>
    <path d="M 869 180 L 868 185 L 867 191 L 865 196 L 863 201 L 861 206 L 859 211 L 855 215 L 851 219 L 847 222 L 842 225 L 836 227 L 831 228 L 825 228 L 820 228 L 815 228 L 809 227 L 804 225 L 799 223 L 795 220 L 791 216 L 788 212 L 785 208 L 783 203 L 780 199 L 778 195 L 775 190 L 773 185 L 771 180 L 770 174 L 770 169 L 771 163 L 773 158 L 777 153 L 781 149 L 785 145 L 790 142 L 794 139 L 799 136 L 804 134 L 809 133 L 815 132 L 820 132 L 825 133 L 830 135 L 835 137 L 840 139 L 844 142 L 848 145 L 852 148 L 856 151 L 860 155 L 864 159 L 866 164 L 868 169 L 869 175 L 869 180 Z" fill="none" stroke="#4a9a8e" stroke-width="1" stroke-opacity="0.5"/>
    <path d="M 893 180 L 892 188 L 890 196 L 888 204 L 885 211 L 882 219 L 878 226 L 873 233 L 867 239 L 860 244 L 852 247 L 844 250 L 836 251 L 828 252 L 820 252 L 812 251 L 804 250 L 796 247 L 789 244 L 783 239 L 777 234 L 772 228 L 768 222 L 764 215 L 760 209 L 756 202 L 753 195 L 749 188 L 746 180 L 745 171 L 745 163 L 747 154 L 750 146 L 755 139 L 761 133 L 768 128 L 774 123 L 781 118 L 788 115 L 796 111 L 804 109 L 812 108 L 820 108 L 828 109 L 836 112 L 843 115 L 849 119 L 856 123 L 862 127 L 868 132 L 875 136 L 880 142 L 885 149 L 889 156 L 892 164 L 893 172 L 893 180 Z" fill="none" stroke="#4a9a8e" stroke-width="1" stroke-opacity="0.475"/>
    <path d="M 917 180 L 916 191 L 913 201 L 911 212 L 907 222 L 903 232 L 897 242 L 891 251 L 883 258 L 873 265 L 863 270 L 853 273 L 842 275 L 831 276 L 820 276 L 809 275 L 799 273 L 789 270 L 779 265 L 770 259 L 763 252 L 756 244 L 750 235 L 745 227 L 740 218 L 735 210 L 730 201 L 725 191 L 722 180 L 719 169 L 720 157 L 722 146 L 727 135 L 734 126 L 742 117 L 750 110 L 759 104 L 768 98 L 778 93 L 788 88 L 798 85 L 809 84 L 820 84 L 831 86 L 841 89 L 850 94 L 859 99 L 868 104 L 876 110 L 884 116 L 893 122 L 900 129 L 907 138 L 912 148 L 916 158 L 917 169 L 917 180 Z" fill="none" stroke="#4a9a8e" stroke-width="1" stroke-opacity="0.45"/>
    <path d="M 941 180 L 940 193 L 937 207 L 933 220 L 929 232 L 923 245 L 917 257 L 908 268 L 898 278 L 887 286 L 874 292 L 861 296 L 847 299 L 834 300 L 820 300 L 807 299 L 793 296 L 781 292 L 769 286 L 758 279 L 748 270 L 740 260 L 733 249 L 727 239 L 720 228 L 714 217 L 708 206 L 702 193 L 697 180 L 694 166 L 694 151 L 698 137 L 704 124 L 712 112 L 722 102 L 733 93 L 744 85 L 756 77 L 767 71 L 780 65 L 793 61 L 806 59 L 820 60 L 833 62 L 846 67 L 858 72 L 869 79 L 880 85 L 890 92 L 901 99 L 911 107 L 921 117 L 929 128 L 935 140 L 940 153 L 942 166 L 941 180 Z" fill="none" stroke="#4a9a8e" stroke-width="1" stroke-opacity="0.425"/>
    <path d="M 966 180 L 964 196 L 960 212 L 956 228 L 950 243 L 944 258 L 936 272 L 926 286 L 914 298 L 900 307 L 885 315 L 869 320 L 853 323 L 836 324 L 820 324 L 804 323 L 788 320 L 773 315 L 758 308 L 745 299 L 734 288 L 724 276 L 716 263 L 708 250 L 700 238 L 693 225 L 685 211 L 678 196 L 672 180 L 669 163 L 669 146 L 673 129 L 680 113 L 690 99 L 702 86 L 715 75 L 729 66 L 743 57 L 757 49 L 772 42 L 788 38 L 804 35 L 820 36 L 836 39 L 851 44 L 865 51 L 879 58 L 891 66 L 904 75 L 917 83 L 929 93 L 941 104 L 951 117 L 959 132 L 964 147 L 966 164 L 966 180 Z" fill="none" stroke="#4a9a8e" stroke-width="1" stroke-opacity="0.4"/>
    <path d="M 990 180 L 987 199 L 984 217 L 978 235 L 972 253 L 965 271 L 955 288 L 944 304 L 930 317 L 913 329 L 896 337 L 877 343 L 858 347 L 839 348 L 820 348 L 801 347 L 783 343 L 765 337 L 748 329 L 733 318 L 720 306 L 708 292 L 698 277 L 689 262 L 680 247 L 672 232 L 663 216 L 654 199 L 648 180 L 644 160 L 644 140 L 649 120 L 657 102 L 669 85 L 683 70 L 698 58 L 714 47 L 730 36 L 746 27 L 764 20 L 782 14 L 801 11 L 820 12 L 839 15 L 856 21 L 873 29 L 888 38 L 903 47 L 918 57 L 933 67 L 947 78 L 961 91 L 973 107 L 982 123 L 988 142 L 990 161 L 990 180 Z" fill="none" stroke="#4a9a8e" stroke-width="1" stroke-opacity="0.375"/>
    <path d="M 1014 180 L 1011 202 L 1007 223 L 1001 243 L 994 264 L 985 284 L 975 303 L 961 321 L 945 337 L 927 350 L 907 360 L 885 366 L 863 370 L 842 372 L 820 372 L 799 370 L 777 366 L 757 360 L 738 350 L 721 338 L 705 324 L 692 308 L 681 291 L 671 274 L 661 257 L 650 239 L 640 221 L 631 201 L 623 180 L 619 157 L 619 134 L 624 111 L 634 90 L 647 71 L 663 55 L 680 40 L 698 27 L 717 16 L 736 5 L 756 -3 L 777 -10 L 798 -13 L 820 -12 L 841 -8 L 861 -1 L 880 8 L 898 18 L 915 28 L 932 39 L 949 51 L 966 64 L 981 79 L 994 96 L 1005 115 L 1011 136 L 1014 158 L 1014 180 Z" fill="none" stroke="#4a9a8e" stroke-width="1" stroke-opacity="0.35"/>
    <path d="M 1038 180 L 1035 204 L 1030 228 L 1024 251 L 1016 274 L 1006 297 L 994 319 L 979 339 L 961 357 L 940 371 L 917 382 L 893 390 L 869 394 L 844 396 L 820 396 L 796 394 L 772 390 L 749 382 L 728 372 L 708 358 L 691 342 L 676 324 L 664 305 L 652 286 L 641 266 L 629 247 L 618 226 L 607 204 L 598 180 L 594 154 L 594 128 L 600 103 L 611 79 L 626 58 L 643 39 L 663 23 L 683 8 L 704 -5 L 725 -16 L 748 -26 L 771 -33 L 796 -37 L 820 -37 L 844 -32 L 867 -24 L 888 -14 L 908 -2 L 927 10 L 946 22 L 965 35 L 984 49 L 1001 66 L 1016 86 L 1028 107 L 1035 131 L 1039 155 L 1038 180 Z" fill="none" stroke="#4a9a8e" stroke-width="1" stroke-opacity="0.325"/>
    <path d="M 1063 180 L 1059 207 L 1054 233 L 1046 259 L 1037 285 L 1027 310 L 1013 334 L 996 356 L 976 376 L 953 392 L 928 405 L 902 413 L 874 418 L 847 420 L 820 420 L 793 418 L 767 413 L 741 405 L 717 393 L 696 378 L 677 360 L 660 340 L 646 319 L 633 297 L 621 276 L 608 254 L 595 231 L 583 207 L 574 180 L 569 152 L 569 123 L 575 94 L 587 68 L 604 44 L 624 24 L 645 5 L 668 -11 L 691 -25 L 715 -38 L 740 -49 L 766 -57 L 793 -61 L 820 -61 L 847 -56 L 872 -47 L 895 -35 L 918 -23 L 939 -9 L 960 4 L 981 19 L 1002 35 L 1021 54 L 1038 75 L 1051 99 L 1059 125 L 1063 153 L 1063 180 Z" fill="none" stroke="#4a9a8e" stroke-width="1" stroke-opacity="0.3"/>
    <path d="M 1087 180 L 1083 210 L 1077 239 L 1069 267 L 1059 295 L 1047 323 L 1032 349 L 1014 374 L 992 396 L 967 414 L 939 427 L 910 436 L 880 442 L 850 444 L 820 444 L 791 442 L 762 436 L 734 427 L 707 414 L 683 397 L 662 378 L 644 356 L 629 332 L 615 309 L 601 286 L 587 262 L 573 236 L 559 209 L 549 180 L 543 149 L 544 117 L 551 86 L 564 57 L 582 31 L 604 8 L 628 -12 L 653 -30 L 678 -46 L 704 -60 L 732 -72 L 760 -81 L 790 -85 L 820 -85 L 849 -79 L 877 -69 L 903 -57 L 927 -43 L 951 -28 L 974 -13 L 997 3 L 1020 20 L 1041 41 L 1060 65 L 1074 91 L 1083 120 L 1087 150 L 1087 180 Z" fill="none" stroke="#4a9a8e" stroke-width="1" stroke-opacity="0.275"/>
    <path d="M 1111 180 L 1107 212 L 1100 244 L 1092 275 L 1081 306 L 1068 336 L 1052 365 L 1032 392 L 1008 415 L 980 435 L 950 449 L 918 460 L 885 466 L 852 468 L 820 468 L 788 465 L 756 459 L 726 450 L 697 435 L 671 417 L 648 396 L 628 372 L 611 346 L 596 321 L 581 295 L 565 269 L 550 242 L 536 212 L 525 180 L 518 146 L 519 111 L 526 77 L 541 45 L 561 17 L 585 -8 L 611 -29 L 638 -49 L 665 -66 L 694 -82 L 724 -95 L 755 -105 L 787 -109 L 820 -109 L 852 -103 L 882 -92 L 910 -79 L 937 -63 L 963 -47 L 988 -31 L 1013 -13 L 1038 6 L 1061 28 L 1082 54 L 1097 83 L 1107 114 L 1112 147 L 1111 180 Z" fill="none" stroke="#4a9a8e" stroke-width="1" stroke-opacity="0.25"/>
    <path d="M 1136 180 L 1131 215 L 1124 249 L 1114 283 L 1103 316 L 1089 349 L 1071 380 L 1049 409 L 1023 435 L 993 456 L 961 472 L 926 483 L 891 489 L 855 492 L 820 492 L 785 489 L 751 483 L 718 472 L 687 457 L 659 437 L 634 414 L 613 387 L 594 360 L 577 333 L 561 305 L 544 276 L 528 247 L 512 215 L 500 180 L 493 143 L 493 105 L 502 69 L 517 34 L 539 4 L 565 -23 L 593 -47 L 622 -68 L 652 -87 L 683 -104 L 716 -118 L 750 -128 L 785 -133 L 820 -133 L 855 -126 L 887 -115 L 918 -100 L 947 -84 L 975 -66 L 1002 -48 L 1030 -30 L 1056 -9 L 1082 16 L 1103 44 L 1120 75 L 1131 109 L 1136 144 L 1136 180 Z" fill="none" stroke="#4a9a8e" stroke-width="1" stroke-opacity="0.225"/>
    <path d="M 1160 180 L 1155 218 L 1147 255 L 1137 291 L 1124 327 L 1109 362 L 1090 396 L 1067 427 L 1039 455 L 1007 477 L 971 494 L 934 506 L 896 513 L 858 516 L 820 516 L 782 513 L 746 506 L 710 494 L 676 478 L 646 457 L 619 431 L 597 403 L 577 374 L 559 344 L 541 314 L 523 284 L 505 252 L 488 217 L 475 180 L 468 140 L 468 100 L 477 60 L 494 23 L 518 -10 L 545 -39 L 576 -64 L 607 -87 L 639 -107 L 673 -126 L 708 -141 L 744 -152 L 782 -158 L 820 -157 L 857 -150 L 892 -138 L 926 -122 L 957 -104 L 987 -85 L 1016 -66 L 1046 -46 L 1075 -23 L 1102 3 L 1125 33 L 1143 67 L 1155 104 L 1160 142 L 1160 180 Z" fill="none" stroke="#4a9a8e" stroke-width="1" stroke-opacity="0.2"/>
    <path d="M 1184 180 L 1179 220 L 1170 260 L 1159 299 L 1146 337 L 1130 375 L 1110 411 L 1085 445 L 1055 474 L 1020 499 L 982 517 L 942 529 L 902 537 L 861 541 L 820 540 L 780 537 L 740 529 L 702 517 L 666 499 L 634 477 L 605 449 L 581 419 L 559 388 L 540 356 L 521 324 L 502 291 L 483 257 L 465 220 L 451 180 L 443 137 L 443 94 L 453 51 L 471 12 L 496 -24 L 526 -55 L 558 -82 L 592 -106 L 627 -128 L 662 -147 L 700 -164 L 739 -176 L 779 -182 L 820 -181 L 860 -173 L 898 -160 L 933 -143 L 966 -124 L 999 -104 L 1030 -84 L 1062 -62 L 1093 -38 L 1122 -10 L 1147 23 L 1166 59 L 1179 98 L 1185 139 L 1184 180 Z" fill="none" stroke="#4a9a8e" stroke-width="1" stroke-opacity="0.18"/>
    <path d="M 1208 180 L 1203 223 L 1194 265 L 1182 307 L 1168 348 L 1151 388 L 1129 426 L 1102 462 L 1070 494 L 1033 520 L 993 539 L 950 553 L 907 561 L 863 565 L 820 564 L 777 561 L 735 553 L 694 539 L 656 521 L 621 496 L 591 467 L 565 435 L 542 402 L 521 368 L 501 334 L 481 299 L 460 262 L 441 223 L 426 180 L 418 135 L 418 88 L 428 43 L 448 1 L 474 -37 L 506 -70 L 541 -99 L 577 -125 L 614 -148 L 652 -169 L 692 -187 L 733 -199 L 777 -206 L 820 -205 L 862 -197 L 903 -183 L 941 -165 L 976 -144 L 1010 -123 L 1044 -101 L 1078 -78 L 1111 -52 L 1142 -22 L 1169 12 L 1189 51 L 1203 93 L 1209 136 L 1208 180 Z" fill="none" stroke="#4a9a8e" stroke-width="1" stroke-opacity="0.18"/>
    <path d="M 587 520 L 587 523 L 587 526 L 586 529 L 585 532 L 584 535 L 582 538 L 580 540 L 578 542 L 575 544 L 572 545 L 569 546 L 566 547 L 563 547 L 560 547 L 557 546 L 554 546 L 551 546 L 548 545 L 545 545 L 541 543 L 538 542 L 536 539 L 534 537 L 533 533 L 532 530 L 532 526 L 533 523 L 534 520 L 535 517 L 535 514 L 536 512 L 537 509 L 538 506 L 539 503 L 540 500 L 542 498 L 545 496 L 548 494 L 551 493 L 554 492 L 557 492 L 560 491 L 563 491 L 566 492 L 570 492 L 573 493 L 576 495 L 578 497 L 580 500 L 582 502 L 583 505 L 584 508 L 585 511 L 586 514 L 587 517 L 587 520 Z" fill="none" stroke="#4a9a8e" stroke-width="1" stroke-opacity="0.525"/>
    <path d="M 614 520 L 614 526 L 614 532 L 613 538 L 611 544 L 608 550 L 605 556 L 600 560 L 596 565 L 590 568 L 584 570 L 578 572 L 572 573 L 566 573 L 560 573 L 554 573 L 548 572 L 542 572 L 536 571 L 529 569 L 523 567 L 517 563 L 511 559 L 507 553 L 505 546 L 504 540 L 505 533 L 506 526 L 508 520 L 509 514 L 511 509 L 512 503 L 514 498 L 515 492 L 518 486 L 521 481 L 525 476 L 530 472 L 535 469 L 541 466 L 547 465 L 554 463 L 560 463 L 566 463 L 573 463 L 579 464 L 586 467 L 591 470 L 596 474 L 601 479 L 604 485 L 607 491 L 609 496 L 611 502 L 612 508 L 613 514 L 614 520 Z" fill="none" stroke="#4a9a8e" stroke-width="1" stroke-opacity="0.5"/>
    <path d="M 641 520 L 641 529 L 641 538 L 639 548 L 636 557 L 632 565 L 627 573 L 621 581 L 613 587 L 605 592 L 596 596 L 587 598 L 578 600 L 569 600 L 560 600 L 551 599 L 542 598 L 533 597 L 523 596 L 514 594 L 504 590 L 495 585 L 487 578 L 481 570 L 478 560 L 476 549 L 477 539 L 479 529 L 481 520 L 484 511 L 486 503 L 488 495 L 490 486 L 493 478 L 496 469 L 501 461 L 507 454 L 515 448 L 523 443 L 532 440 L 541 437 L 550 435 L 560 434 L 570 434 L 579 435 L 589 437 L 598 440 L 607 445 L 614 452 L 621 459 L 626 467 L 630 476 L 633 485 L 636 493 L 638 502 L 640 511 L 641 520 Z" fill="none" stroke="#4a9a8e" stroke-width="1" stroke-opacity="0.475"/>
    <path d="M 668 520 L 669 532 L 668 545 L 665 557 L 662 569 L 656 580 L 649 591 L 641 601 L 631 609 L 620 616 L 609 621 L 596 624 L 584 626 L 572 627 L 560 626 L 548 625 L 536 624 L 524 623 L 511 621 L 498 618 L 485 614 L 473 607 L 463 598 L 455 586 L 450 573 L 448 559 L 449 545 L 452 532 L 455 520 L 459 509 L 462 498 L 464 487 L 467 475 L 471 464 L 475 452 L 482 442 L 490 432 L 500 424 L 511 418 L 523 413 L 535 409 L 547 407 L 560 406 L 573 405 L 586 406 L 599 409 L 611 414 L 623 420 L 633 429 L 641 439 L 648 450 L 653 461 L 658 473 L 661 485 L 664 496 L 667 508 L 668 520 Z" fill="none" stroke="#4a9a8e" stroke-width="1" stroke-opacity="0.45"/>
    <path d="M 695 520 L 696 535 L 695 551 L 692 566 L 687 581 L 680 596 L 671 609 L 661 621 L 649 631 L 635 640 L 621 646 L 606 650 L 590 653 L 575 653 L 560 653 L 545 652 L 530 651 L 515 649 L 499 647 L 483 643 L 466 637 L 451 629 L 438 617 L 429 603 L 423 586 L 421 569 L 422 552 L 425 535 L 429 520 L 433 506 L 437 492 L 441 478 L 444 464 L 448 450 L 454 436 L 462 422 L 472 410 L 485 400 L 498 392 L 513 386 L 528 382 L 544 379 L 560 377 L 576 376 L 592 378 L 609 381 L 624 387 L 638 395 L 651 406 L 661 419 L 670 432 L 677 447 L 682 461 L 687 476 L 690 490 L 693 505 L 695 520 Z" fill="none" stroke="#4a9a8e" stroke-width="1" stroke-opacity="0.425"/>
    <path d="M 722 520 L 723 538 L 722 557 L 718 575 L 712 593 L 704 611 L 694 627 L 681 641 L 667 654 L 650 664 L 633 671 L 615 676 L 596 679 L 578 680 L 560 679 L 542 678 L 524 677 L 506 675 L 487 672 L 467 668 L 448 661 L 430 650 L 414 636 L 402 619 L 395 599 L 393 579 L 394 558 L 398 538 L 403 520 L 408 503 L 413 486 L 417 470 L 421 453 L 426 436 L 433 419 L 442 402 L 455 388 L 470 376 L 486 367 L 504 359 L 522 354 L 541 350 L 560 348 L 579 348 L 599 349 L 618 353 L 637 360 L 654 371 L 669 383 L 682 398 L 692 415 L 700 432 L 707 449 L 712 467 L 716 484 L 720 502 L 722 520 Z" fill="none" stroke="#4a9a8e" stroke-width="1" stroke-opacity="0.4"/>
    <path d="M 749 520 L 750 541 L 749 563 L 745 585 L 738 606 L 728 626 L 716 644 L 701 661 L 684 676 L 665 688 L 645 697 L 624 702 L 602 706 L 581 707 L 560 706 L 539 705 L 518 703 L 497 701 L 475 697 L 452 692 L 429 684 L 408 672 L 390 656 L 376 636 L 368 613 L 365 588 L 366 564 L 371 541 L 377 520 L 383 500 L 388 481 L 393 462 L 398 442 L 403 422 L 412 402 L 423 383 L 437 366 L 454 352 L 474 341 L 494 333 L 516 326 L 538 322 L 560 320 L 583 319 L 605 321 L 628 326 L 650 334 L 670 346 L 687 361 L 702 378 L 714 397 L 724 417 L 731 438 L 737 458 L 743 478 L 747 499 L 749 520 Z" fill="none" stroke="#4a9a8e" stroke-width="1" stroke-opacity="0.375"/>
    <path d="M 776 520 L 777 544 L 776 569 L 771 594 L 763 618 L 752 641 L 738 662 L 721 681 L 702 698 L 680 712 L 657 722 L 633 729 L 608 732 L 584 733 L 560 733 L 536 731 L 512 729 L 488 726 L 462 723 L 436 717 L 410 708 L 386 694 L 366 675 L 350 652 L 340 626 L 337 598 L 339 571 L 344 544 L 351 520 L 358 497 L 364 475 L 369 453 L 374 431 L 381 408 L 391 385 L 403 363 L 420 344 L 439 328 L 461 315 L 485 306 L 510 299 L 535 294 L 560 291 L 586 290 L 612 292 L 638 298 L 662 307 L 685 321 L 705 338 L 722 358 L 736 380 L 747 403 L 756 426 L 763 449 L 769 472 L 773 496 L 776 520 Z" fill="none" stroke="#4a9a8e" stroke-width="1" stroke-opacity="0.35"/>
    <path d="M 803 520 L 804 548 L 802 575 L 797 603 L 789 630 L 776 656 L 761 680 L 742 702 L 720 720 L 695 736 L 669 747 L 642 755 L 614 759 L 587 760 L 560 759 L 533 757 L 506 755 L 479 752 L 450 748 L 421 742 L 392 731 L 364 716 L 341 694 L 324 669 L 313 639 L 309 608 L 311 577 L 317 547 L 324 520 L 332 494 L 339 470 L 345 445 L 351 419 L 359 394 L 369 368 L 384 344 L 402 322 L 424 304 L 449 290 L 476 279 L 503 271 L 531 266 L 560 262 L 589 262 L 618 264 L 647 270 L 675 281 L 701 296 L 723 315 L 742 338 L 758 362 L 770 388 L 780 414 L 788 440 L 795 466 L 800 493 L 803 520 Z" fill="none" stroke="#4a9a8e" stroke-width="1" stroke-opacity="0.325"/>
    <path d="M 830 520 L 831 551 L 829 581 L 824 612 L 814 642 L 800 671 L 783 698 L 762 722 L 738 743 L 710 760 L 681 772 L 651 781 L 621 785 L 590 786 L 560 786 L 530 784 L 500 781 L 470 778 L 438 774 L 405 766 L 373 755 L 343 737 L 317 714 L 297 685 L 285 652 L 281 618 L 283 583 L 290 550 L 298 520 L 307 491 L 315 464 L 321 436 L 328 408 L 336 380 L 348 351 L 364 324 L 385 300 L 409 280 L 437 264 L 466 252 L 497 243 L 528 237 L 560 234 L 592 233 L 625 236 L 657 242 L 688 254 L 717 271 L 742 292 L 763 317 L 780 345 L 794 373 L 805 402 L 813 431 L 821 460 L 827 490 L 830 520 Z" fill="none" stroke="#4a9a8e" stroke-width="1" stroke-opacity="0.3"/>
    <path d="M 857 520 L 859 554 L 856 588 L 850 622 L 839 655 L 824 686 L 805 716 L 782 742 L 755 765 L 726 783 L 694 797 L 660 807 L 627 812 L 593 813 L 560 812 L 527 810 L 494 807 L 461 804 L 426 799 L 390 791 L 354 778 L 321 759 L 293 733 L 271 702 L 258 665 L 253 627 L 256 589 L 263 553 L 272 520 L 282 489 L 290 458 L 297 428 L 305 397 L 314 365 L 327 334 L 345 305 L 367 278 L 394 256 L 424 239 L 457 225 L 491 216 L 525 209 L 560 205 L 596 204 L 631 207 L 667 215 L 701 228 L 732 246 L 760 270 L 783 297 L 802 327 L 817 359 L 829 390 L 839 422 L 847 455 L 853 487 L 857 520 Z" fill="none" stroke="#4a9a8e" stroke-width="1" stroke-opacity="0.275"/>
    <path d="M 884 520 L 886 557 L 883 594 L 876 631 L 865 667 L 849 701 L 828 733 L 802 762 L 773 787 L 741 807 L 706 823 L 669 833 L 633 838 L 596 840 L 560 839 L 524 836 L 488 833 L 452 830 L 413 824 L 374 815 L 336 801 L 299 781 L 268 753 L 245 718 L 231 679 L 225 637 L 228 596 L 236 557 L 246 520 L 256 486 L 265 453 L 273 420 L 282 386 L 292 351 L 306 317 L 325 285 L 350 256 L 379 232 L 412 213 L 448 199 L 484 188 L 522 181 L 560 177 L 599 176 L 638 179 L 677 187 L 714 201 L 748 221 L 778 247 L 803 277 L 824 310 L 840 344 L 853 379 L 864 414 L 873 449 L 880 484 L 884 520 Z" fill="none" stroke="#4a9a8e" stroke-width="1" stroke-opacity="0.25"/>
    <path d="M 1076 540 L 1075 543 L 1075 546 L 1074 548 L 1073 551 L 1072 554 L 1070 556 L 1068 558 L 1065 559 L 1063 560 L 1060 561 L 1057 561 L 1055 562 L 1052 562 L 1050 562 L 1047 563 L 1045 563 L 1042 563 L 1039 562 L 1036 562 L 1034 560 L 1031 559 L 1029 557 L 1027 554 L 1025 552 L 1024 549 L 1023 546 L 1023 543 L 1023 540 L 1024 537 L 1025 534 L 1027 532 L 1028 530 L 1030 527 L 1031 525 L 1033 523 L 1035 521 L 1037 519 L 1039 518 L 1042 517 L 1045 516 L 1047 516 L 1050 517 L 1053 517 L 1055 518 L 1058 518 L 1060 519 L 1063 519 L 1066 520 L 1069 521 L 1071 523 L 1074 525 L 1075 528 L 1076 531 L 1076 534 L 1076 537 L 1076 540 Z" fill="none" stroke="#4a9a8e" stroke-width="1" stroke-opacity="0.525"/>
    <path d="M 1101 540 L 1100 546 L 1099 551 L 1098 557 L 1096 562 L 1093 567 L 1090 572 L 1086 576 L 1081 578 L 1075 581 L 1070 582 L 1065 583 L 1060 583 L 1055 584 L 1050 585 L 1045 585 L 1040 586 L 1034 586 L 1028 585 L 1023 583 L 1017 581 L 1012 578 L 1008 574 L 1004 569 L 1001 564 L 998 558 L 997 552 L 996 546 L 997 540 L 999 534 L 1001 529 L 1004 524 L 1007 519 L 1010 515 L 1013 510 L 1016 506 L 1020 502 L 1024 498 L 1028 495 L 1034 493 L 1039 492 L 1045 493 L 1050 494 L 1055 495 L 1060 496 L 1065 497 L 1070 498 L 1076 499 L 1082 500 L 1088 502 L 1093 506 L 1097 510 L 1100 516 L 1102 522 L 1102 528 L 1102 534 L 1101 540 Z" fill="none" stroke="#4a9a8e" stroke-width="1" stroke-opacity="0.5"/>
    <path d="M 1127 540 L 1126 549 L 1124 557 L 1122 565 L 1119 573 L 1115 581 L 1110 588 L 1103 593 L 1096 598 L 1088 601 L 1080 603 L 1072 604 L 1065 605 L 1057 606 L 1050 607 L 1042 608 L 1034 609 L 1026 609 L 1018 607 L 1009 605 L 1001 601 L 994 596 L 987 590 L 981 583 L 976 576 L 972 567 L 970 558 L 969 549 L 970 540 L 973 531 L 976 523 L 981 516 L 985 509 L 990 502 L 994 496 L 999 489 L 1005 483 L 1011 477 L 1018 473 L 1026 470 L 1034 469 L 1042 469 L 1050 470 L 1058 472 L 1065 474 L 1073 475 L 1081 477 L 1089 478 L 1098 480 L 1106 484 L 1114 489 L 1121 496 L 1125 504 L 1128 513 L 1129 522 L 1128 531 L 1127 540 Z" fill="none" stroke="#4a9a8e" stroke-width="1" stroke-opacity="0.475"/>
    <path d="M 1153 540 L 1151 551 L 1148 562 L 1145 573 L 1142 584 L 1136 594 L 1130 603 L 1121 611 L 1111 617 L 1101 621 L 1090 624 L 1080 625 L 1070 627 L 1060 628 L 1050 629 L 1040 631 L 1029 632 L 1018 631 L 1007 630 L 996 627 L 985 622 L 975 615 L 966 607 L 958 598 L 951 588 L 946 576 L 943 564 L 942 552 L 944 540 L 947 528 L 952 518 L 958 508 L 964 498 L 970 490 L 976 481 L 982 472 L 989 464 L 998 457 L 1007 451 L 1017 447 L 1028 445 L 1039 445 L 1050 447 L 1060 449 L 1070 452 L 1080 454 L 1091 456 L 1102 457 L 1114 460 L 1125 465 L 1136 472 L 1144 481 L 1150 492 L 1154 504 L 1155 516 L 1154 528 L 1153 540 Z" fill="none" stroke="#4a9a8e" stroke-width="1" stroke-opacity="0.45"/>
    <path d="M 1178 540 L 1176 554 L 1173 568 L 1169 582 L 1165 595 L 1158 608 L 1150 619 L 1139 629 L 1127 636 L 1114 641 L 1100 645 L 1087 647 L 1075 648 L 1062 650 L 1050 652 L 1037 654 L 1024 655 L 1010 654 L 996 652 L 982 648 L 969 642 L 956 634 L 945 624 L 935 612 L 926 599 L 920 585 L 916 570 L 915 555 L 917 540 L 921 526 L 927 512 L 935 500 L 942 488 L 950 477 L 957 466 L 965 455 L 974 445 L 985 436 L 996 428 L 1009 423 L 1023 421 L 1037 422 L 1050 424 L 1063 427 L 1075 430 L 1088 432 L 1101 434 L 1115 437 L 1129 440 L 1144 446 L 1157 455 L 1168 466 L 1175 480 L 1180 495 L 1181 510 L 1180 525 L 1178 540 Z" fill="none" stroke="#4a9a8e" stroke-width="1" stroke-opacity="0.425"/>
    <path d="M 1204 540 L 1201 557 L 1197 574 L 1193 590 L 1187 606 L 1180 622 L 1169 635 L 1157 647 L 1142 655 L 1126 662 L 1110 665 L 1095 668 L 1080 670 L 1065 672 L 1050 674 L 1035 676 L 1019 678 L 1002 677 L 985 675 L 968 670 L 952 662 L 937 653 L 924 641 L 912 627 L 902 611 L 894 594 L 890 577 L 889 558 L 891 540 L 896 523 L 903 506 L 912 492 L 921 478 L 930 464 L 939 451 L 949 439 L 959 426 L 971 415 L 985 406 L 1001 400 L 1017 397 L 1034 398 L 1050 401 L 1065 404 L 1080 408 L 1095 411 L 1111 413 L 1128 416 L 1145 420 L 1163 427 L 1178 438 L 1191 451 L 1200 468 L 1206 486 L 1207 504 L 1206 522 L 1204 540 Z" fill="none" stroke="#4a9a8e" stroke-width="1" stroke-opacity="0.4"/>
    <path d="M 1230 540 L 1226 560 L 1222 579 L 1217 598 L 1210 617 L 1201 635 L 1189 651 L 1174 664 L 1157 675 L 1139 682 L 1120 686 L 1102 689 L 1085 692 L 1067 694 L 1050 697 L 1032 699 L 1013 700 L 994 700 L 974 697 L 955 691 L 936 683 L 919 671 L 903 657 L 889 641 L 877 623 L 868 604 L 863 583 L 862 561 L 864 540 L 870 520 L 878 501 L 888 483 L 899 467 L 910 452 L 920 437 L 932 422 L 944 407 L 958 394 L 975 384 L 993 377 L 1012 374 L 1031 374 L 1050 377 L 1068 382 L 1085 386 L 1103 389 L 1121 392 L 1141 395 L 1161 401 L 1181 409 L 1200 421 L 1215 436 L 1225 455 L 1232 476 L 1234 498 L 1233 519 L 1230 540 Z" fill="none" stroke="#4a9a8e" stroke-width="1" stroke-opacity="0.375"/>
    <path d="M 1255 540 L 1251 563 L 1247 585 L 1241 607 L 1233 628 L 1223 649 L 1209 667 L 1192 682 L 1173 694 L 1152 702 L 1131 707 L 1110 711 L 1090 713 L 1070 716 L 1050 719 L 1030 722 L 1008 723 L 986 723 L 963 720 L 941 713 L 920 703 L 900 690 L 882 674 L 866 656 L 852 635 L 842 613 L 836 589 L 835 564 L 838 540 L 844 517 L 854 495 L 865 475 L 878 457 L 890 439 L 902 422 L 915 405 L 929 388 L 945 373 L 964 361 L 985 353 L 1007 350 L 1029 351 L 1050 354 L 1070 359 L 1090 364 L 1110 368 L 1131 371 L 1154 375 L 1177 381 L 1200 390 L 1221 404 L 1238 422 L 1251 443 L 1258 467 L 1260 492 L 1259 516 L 1255 540 Z" fill="none" stroke="#4a9a8e" stroke-width="1" stroke-opacity="0.35"/>
    <path d="M 1281 540 L 1277 566 L 1271 590 L 1265 615 L 1256 639 L 1245 662 L 1229 683 L 1210 700 L 1188 713 L 1165 722 L 1141 728 L 1117 732 L 1094 735 L 1072 738 L 1050 741 L 1027 744 L 1003 746 L 978 746 L 953 742 L 928 735 L 904 724 L 881 709 L 861 691 L 843 670 L 828 647 L 816 622 L 810 595 L 808 567 L 811 540 L 819 514 L 829 490 L 842 467 L 856 447 L 870 427 L 883 407 L 898 388 L 914 369 L 932 352 L 953 339 L 977 330 L 1001 326 L 1026 327 L 1050 331 L 1073 336 L 1095 342 L 1118 346 L 1142 350 L 1167 354 L 1193 361 L 1219 371 L 1242 386 L 1262 407 L 1276 431 L 1283 458 L 1286 486 L 1285 514 L 1281 540 Z" fill="none" stroke="#4a9a8e" stroke-width="1" stroke-opacity="0.325"/>
    <path d="M 1307 540 L 1302 568 L 1296 596 L 1289 623 L 1279 650 L 1266 676 L 1249 699 L 1228 718 L 1203 732 L 1177 743 L 1151 749 L 1125 753 L 1099 757 L 1075 760 L 1050 764 L 1024 767 L 998 769 L 970 769 L 942 765 L 914 756 L 887 744 L 862 728 L 840 708 L 820 685 L 803 659 L 791 631 L 783 601 L 781 570 L 784 540 L 793 511 L 805 484 L 819 459 L 834 436 L 850 414 L 865 392 L 881 371 L 899 350 L 919 332 L 942 317 L 968 307 L 996 302 L 1023 303 L 1050 308 L 1076 314 L 1100 320 L 1125 325 L 1152 329 L 1180 334 L 1209 341 L 1238 352 L 1264 369 L 1285 392 L 1301 419 L 1309 449 L 1312 480 L 1311 511 L 1307 540 Z" fill="none" stroke="#4a9a8e" stroke-width="1" stroke-opacity="0.3"/>
    <path d="M 1333 540 L 1327 571 L 1320 602 L 1312 632 L 1302 661 L 1288 689 L 1269 715 L 1246 736 L 1219 752 L 1190 763 L 1161 770 L 1132 775 L 1104 778 L 1077 782 L 1050 786 L 1022 790 L 992 792 L 962 792 L 931 787 L 900 778 L 871 764 L 844 746 L 819 725 L 797 699 L 778 671 L 765 640 L 756 607 L 754 573 L 758 540 L 767 508 L 780 478 L 796 451 L 813 426 L 830 401 L 846 378 L 864 354 L 884 331 L 906 311 L 932 294 L 960 284 L 990 279 L 1021 280 L 1050 284 L 1078 291 L 1105 298 L 1133 303 L 1162 308 L 1193 313 L 1225 321 L 1256 334 L 1285 352 L 1309 377 L 1326 407 L 1335 440 L 1338 474 L 1337 508 L 1333 540 Z" fill="none" stroke="#4a9a8e" stroke-width="1" stroke-opacity="0.275"/>
    <path d="M 86 600 L 85 603 L 84 606 L 84 608 L 84 611 L 83 615 L 82 618 L 81 621 L 79 623 L 76 625 L 73 627 L 70 627 L 66 627 L 63 627 L 60 627 L 57 626 L 54 625 L 51 625 L 49 624 L 46 622 L 44 620 L 42 618 L 40 616 L 39 613 L 37 611 L 36 608 L 35 606 L 34 603 L 33 600 L 33 597 L 33 594 L 33 591 L 34 588 L 36 585 L 38 582 L 40 580 L 42 578 L 45 576 L 48 574 L 51 573 L 54 573 L 57 573 L 60 573 L 63 574 L 66 575 L 68 577 L 71 578 L 73 579 L 76 580 L 79 581 L 81 583 L 84 585 L 85 588 L 86 591 L 86 594 L 86 597 L 86 600 Z" fill="none" stroke="#4a9a8e" stroke-width="1" stroke-opacity="0.525"/>
    <path d="M 111 600 L 110 606 L 109 611 L 108 617 L 107 623 L 106 629 L 105 636 L 102 642 L 97 647 L 92 651 L 86 653 L 79 655 L 72 655 L 66 654 L 60 653 L 54 652 L 48 651 L 43 649 L 37 647 L 32 644 L 28 641 L 24 636 L 20 632 L 17 627 L 15 622 L 12 617 L 10 611 L 8 606 L 7 600 L 6 594 L 6 588 L 7 581 L 9 575 L 12 570 L 15 564 L 20 560 L 24 555 L 30 552 L 35 549 L 41 547 L 48 546 L 54 546 L 60 547 L 66 549 L 71 551 L 76 553 L 82 555 L 87 557 L 92 559 L 98 562 L 103 566 L 107 570 L 110 576 L 112 582 L 113 588 L 112 594 L 111 600 Z" fill="none" stroke="#4a9a8e" stroke-width="1" stroke-opacity="0.5"/>
    <path d="M 137 600 L 135 608 L 133 617 L 132 625 L 131 634 L 130 644 L 127 653 L 122 662 L 116 670 L 108 676 L 99 680 L 89 682 L 79 682 L 69 681 L 60 680 L 51 678 L 43 676 L 34 674 L 26 671 L 18 666 L 11 661 L 5 655 L 0 648 L -4 640 L -8 633 L -12 625 L -15 617 L -18 609 L -20 600 L -22 591 L -22 581 L -20 572 L -17 563 L -13 554 L -7 546 L -1 539 L 6 533 L 14 527 L 23 523 L 32 520 L 41 519 L 51 519 L 60 520 L 69 523 L 77 526 L 85 530 L 92 533 L 100 536 L 108 539 L 117 543 L 124 549 L 131 555 L 136 564 L 138 573 L 139 582 L 138 591 L 137 600 Z" fill="none" stroke="#4a9a8e" stroke-width="1" stroke-opacity="0.475"/>
    <path d="M 162 600 L 160 611 L 158 622 L 156 634 L 155 646 L 153 658 L 149 671 L 143 683 L 135 694 L 124 702 L 111 707 L 98 709 L 85 709 L 72 708 L 60 707 L 48 704 L 37 702 L 25 699 L 15 694 L 4 689 L -5 681 L -13 673 L -20 664 L -26 654 L -31 644 L -35 633 L -40 623 L -44 612 L -47 600 L -49 588 L -49 575 L -47 563 L -43 551 L -37 539 L -30 529 L -21 519 L -11 510 L -1 503 L 11 497 L 23 493 L 35 491 L 48 492 L 60 494 L 72 497 L 82 502 L 93 506 L 103 510 L 114 514 L 125 519 L 136 524 L 146 532 L 155 541 L 161 551 L 165 563 L 165 576 L 164 588 L 162 600 Z" fill="none" stroke="#4a9a8e" stroke-width="1" stroke-opacity="0.45"/>
    <path d="M 188 600 L 185 614 L 182 628 L 180 642 L 179 657 L 176 673 L 172 689 L 164 704 L 153 717 L 140 727 L 124 733 L 108 736 L 91 737 L 75 735 L 60 733 L 45 730 L 31 727 L 17 723 L 3 718 L -10 711 L -21 702 L -31 691 L -40 680 L -47 667 L -53 655 L -59 642 L -65 628 L -70 615 L -74 600 L -76 585 L -76 569 L -73 553 L -68 538 L -61 524 L -52 511 L -41 499 L -29 488 L -16 479 L -2 472 L 13 467 L 29 464 L 45 465 L 60 467 L 74 472 L 88 477 L 101 483 L 114 488 L 127 493 L 141 499 L 154 506 L 167 514 L 178 526 L 186 539 L 191 554 L 192 570 L 190 585 L 188 600 Z" fill="none" stroke="#4a9a8e" stroke-width="1" stroke-opacity="0.425"/>
    <path d="M 213 600 L 209 617 L 206 633 L 204 650 L 202 669 L 199 688 L 194 707 L 185 725 L 172 740 L 156 752 L 137 760 L 117 764 L 97 764 L 78 763 L 60 760 L 42 757 L 25 753 L 8 748 L -8 741 L -23 733 L -37 722 L -49 709 L -60 695 L -68 681 L -76 666 L -83 650 L -90 634 L -96 618 L -100 600 L -103 582 L -103 563 L -100 544 L -94 526 L -85 509 L -74 493 L -61 479 L -47 466 L -31 455 L -14 446 L 4 440 L 23 437 L 42 437 L 60 441 L 77 446 L 94 452 L 109 459 L 125 465 L 141 472 L 157 478 L 173 487 L 189 497 L 202 511 L 211 527 L 217 545 L 218 564 L 217 582 L 213 600 Z" fill="none" stroke="#4a9a8e" stroke-width="1" stroke-opacity="0.4"/>
    <path d="M 239 600 L 234 620 L 231 639 L 228 659 L 226 680 L 223 702 L 216 725 L 206 746 L 191 764 L 172 778 L 150 787 L 127 791 L 104 791 L 81 790 L 60 786 L 39 783 L 19 778 L -0 773 L -19 765 L -37 755 L -54 742 L -68 728 L -80 711 L -90 694 L -99 676 L -107 658 L -115 640 L -122 620 L -127 600 L -130 579 L -130 557 L -127 535 L -120 514 L -109 494 L -97 475 L -82 458 L -65 443 L -47 430 L -27 420 L -5 413 L 17 410 L 39 410 L 60 414 L 80 420 L 99 428 L 118 436 L 136 443 L 154 450 L 173 458 L 192 468 L 210 480 L 225 496 L 237 515 L 243 536 L 245 558 L 243 579 L 239 600 Z" fill="none" stroke="#4a9a8e" stroke-width="1" stroke-opacity="0.375"/>
    <path d="M 264 600 L 259 622 L 255 645 L 252 667 L 250 691 L 246 717 L 238 742 L 226 766 L 209 787 L 188 803 L 163 813 L 136 818 L 110 819 L 84 817 L 60 813 L 36 809 L 14 804 L -9 797 L -31 789 L -51 777 L -70 763 L -86 746 L -100 727 L -111 708 L -121 687 L -131 667 L -140 646 L -148 623 L -154 600 L -157 576 L -157 550 L -153 525 L -145 501 L -134 478 L -119 457 L -102 438 L -83 421 L -62 406 L -39 395 L -15 387 L 10 383 L 36 383 L 60 388 L 83 395 L 105 403 L 126 412 L 146 421 L 168 429 L 189 438 L 211 449 L 232 463 L 249 481 L 262 503 L 269 527 L 271 552 L 269 576 L 264 600 Z" fill="none" stroke="#4a9a8e" stroke-width="1" stroke-opacity="0.35"/>
    <path d="M 290 600 L 284 625 L 280 650 L 276 676 L 274 703 L 269 731 L 261 760 L 247 787 L 228 811 L 204 828 L 176 840 L 146 845 L 116 846 L 87 844 L 60 840 L 34 835 L 8 829 L -18 822 L -42 812 L -65 799 L -86 783 L -104 764 L -119 743 L -133 721 L -144 698 L -155 675 L -165 651 L -174 626 L -181 600 L -185 572 L -185 544 L -180 516 L -171 489 L -158 463 L -141 439 L -122 418 L -101 399 L -77 382 L -51 369 L -24 360 L 4 356 L 33 356 L 60 361 L 86 369 L 111 379 L 134 389 L 157 398 L 181 407 L 205 418 L 230 430 L 253 446 L 273 466 L 287 491 L 295 518 L 297 546 L 295 574 L 290 600 Z" fill="none" stroke="#4a9a8e" stroke-width="1" stroke-opacity="0.325"/>
    <path d="M 315 600 L 309 628 L 304 656 L 300 684 L 297 714 L 292 746 L 283 778 L 268 808 L 247 834 L 220 854 L 188 867 L 155 873 L 122 874 L 91 871 L 60 866 L 31 861 L 2 855 L -26 847 L -54 836 L -79 821 L -102 803 L -122 782 L -139 759 L -154 734 L -167 709 L -179 683 L -190 657 L -200 629 L -207 600 L -212 569 L -212 538 L -207 507 L -197 476 L -182 448 L -164 422 L -142 398 L -118 376 L -92 358 L -64 343 L -33 333 L -2 328 L 29 329 L 60 334 L 89 343 L 116 354 L 142 365 L 168 376 L 194 386 L 222 397 L 249 411 L 274 429 L 296 452 L 312 479 L 321 509 L 324 540 L 321 571 L 315 600 Z" fill="none" stroke="#4a9a8e" stroke-width="1" stroke-opacity="0.3"/>
  </g>
</svg>